<?xml version="1.0" encoding="utf-8"?>
<svg version="1.1" xmlns:xlink="http://www.w3.org/1999/xlink" width="27px" height="25px" xmlns="http://www.w3.org/2000/svg">
  <g transform="matrix(1 0 0 1 -219 -337 )">
    <path d="M 12.4491978609626 8.16582914572864  C 13.048128342246 7.57956448911223  13.3475935828877 6.86767169179229  13.3475935828877 6.03015075376885  C 13.3475935828877 5.19262981574539  13.048128342246 4.48073701842546  12.4491978609626 3.89447236180905  C 11.8502673796791 3.30820770519263  11.1229946524064 3.01507537688442  10.2673796791444 3.01507537688442  C 9.41176470588235 3.01507537688442  8.68449197860963 3.30820770519263  8.0855614973262 3.89447236180905  C 7.48663101604278 4.48073701842546  7.18716577540107 5.19262981574539  7.18716577540107 6.03015075376885  C 7.18716577540107 6.46984924623115  7.28877005347594 6.90431323283082  7.49197860962567 7.33354271356784  C 7.05347593582888 7.13463149078727  6.6096256684492 7.03517587939699  6.16042780748663 7.03517587939699  C 5.3048128342246 7.03517587939699  4.57754010695187 7.32830820770519  3.97860962566845 7.91457286432161  C 3.37967914438503 8.50083752093802  3.08021390374332 9.21273031825796  3.08021390374332 10.0502512562814  C 3.08021390374332 10.8877721943049  3.37967914438503 11.5996649916248  3.97860962566845 12.1859296482412  C 4.57754010695187 12.7721943048576  5.3048128342246 13.0653266331658  6.16042780748663 13.0653266331658  C 7.01604278074866 13.0653266331658  7.74331550802139 12.7721943048576  8.34224598930481 12.1859296482412  C 8.94117647058824 11.5996649916248  9.24064171122995 10.8877721943049  9.24064171122995 10.0502512562814  C 9.24064171122995 9.61055276381909  9.13903743315508 9.17608877721943  8.93582887700535 8.74685929648241  C 9.37433155080214 8.94577051926298  9.81818181818182 9.04522613065327  10.2673796791444 9.04522613065327  C 11.1229946524064 9.04522613065327  11.8502673796791 8.75209380234506  12.4491978609626 8.16582914572864  Z M 26.5427807486631 16.4415829145729  C 26.8475935828877 16.7870603015075  27 17.001675041876  27 17.0854271356784  C 27 17.2634003350084  26.7379679144385 17.608877721943  26.2139037433155 18.1218592964824  C 25.6898395721925 18.6348408710218  25.3368983957219 18.8913316582915  25.1550802139037 18.8913316582915  C 25.0588235294118 18.8913316582915  24.9064171122995 18.8075795644891  24.6978609625668 18.6400753768844  C 24.4893048128342 18.4725711892797  24.2941176470588 18.2998324958124  24.1122994652406 18.1218592964824  C 23.9304812834225 17.9438860971524  23.7245989304813 17.7345058626466  23.4946524064171 17.4937185929648  C 23.2647058823529 17.2529313232831  23.1336898395722 17.1168341708543  23.1016042780749 17.0854271356784  L 21.5614973262032 18.5929648241206  L 25.0909090909091 22.0477386934673  C 25.3903743315508 22.3408710217755  25.5401069518717 22.6968174204355  25.5401069518717 23.1155778894472  C 25.5401069518717 23.5552763819095  25.331550802139 23.9792713567839  24.9144385026738 24.3875628140704  C 24.4973262032086 24.7958542713568  24.0641711229947 25  23.6149732620321 25  C 23.1871657754011 25  22.8235294117647 24.8534338358459  22.524064171123 24.5603015075377  L 11.7593582887701 14.0232412060302  C 9.87700534759358 15.3946817420436  7.92513368983957 16.0804020100503  5.90374331550802 16.0804020100503  C 4.16042780748663 16.0804020100503  2.74064171122995 15.543865159129  1.64438502673797 14.4707914572864  C 0.54812834224599 13.3977177554439  0 12.0079564489112  0 10.3015075376884  C 0 8.62646566164154  0.508021390374332 6.98806532663317  1.52406417112299 5.38630653266332  C 2.54010695187166 3.78454773869347  3.86631016042781 2.48639028475712  5.50267379679144 1.49183417085427  C 7.13903743315508 0.497278056951422  8.81283422459893 0  10.524064171123 0  C 12.2673796791444 0  13.6871657754011 0.536536850921271  14.783422459893 1.60961055276382  C 15.879679144385 2.68268425460636  16.427807486631 4.07244556113903  16.427807486631 5.77889447236181  C 16.427807486631 7.75753768844221  15.7272727272727 9.66813232830821  14.3262032085561 11.5106783919598  L 20.0213903743316 17.0854271356784  L 21.5614973262032 15.5778894472362  C 21.5294117647059 15.5464824120603  21.3903743315508 15.4182370184255  21.144385026738 15.1931532663317  C 20.8983957219251 14.9680695142379  20.6844919786096 14.766541038526  20.5026737967914 14.588567839196  C 20.3208556149733 14.410594639866  20.144385026738 14.2195351758794  19.9732620320856 14.0153894472362  C 19.8021390374332 13.811243718593  19.716577540107 13.6620603015075  19.716577540107 13.5678391959799  C 19.716577540107 13.3898659966499  19.9786096256685 13.0443886097152  20.5026737967914 12.5314070351759  C 21.0267379679144 12.0184254606365  21.379679144385 11.7619346733668  21.5614973262032 11.7619346733668  C 21.7005347593583 11.7619346733668  21.8235294117647 11.8142797319933  21.9304812834225 11.9189698492462  C 21.9946524064171 11.981783919598  22.2406417112299 12.2147194304858  22.668449197861 12.6177763819095  C 23.096256684492 13.0208333333333  23.5347593582888 13.4369765494137  23.9839572192513 13.8662060301508  C 24.4331550802139 14.2954355108878  24.8957219251337 14.7456030150754  25.3716577540107 15.2167085427136  C 25.8475935828877 15.6878140703518  26.2379679144385 16.0961055276382  26.5427807486631 16.4415829145729  Z " fill-rule="nonzero" fill="#000000" stroke="none" transform="matrix(1 0 0 1 219 337 )" />
  </g>
</svg>